<svg xmlns="http://www.w3.org/2000/svg" viewBox="0 0 90.07 26.71"><defs><style>.cls-1{fill:white;}</style></defs><title>Asset 1</title><g id="Layer_2" data-name="Layer 2"><g id="Layer_1-2" data-name="Layer 1"><path class="cls-1" d="M22.27,21.33l-1.1,1.54a9.05,9.05,0,0,1-2.79,2.82,10.08,10.08,0,0,1-3.81,1c-.39,0-.73-.05-2.71-.17L8,26.36c-.45,0-1.26-.07-2.37-.09s-1.92,0-2.32,0a6.82,6.82,0,0,0-1.1.18l.5-1.55a.86.86,0,0,0,.3,0,1.92,1.92,0,0,0,1-.37c.82-.61.72-.93.92-4.7l.76-17.5a6.89,6.89,0,0,0-1.46-.1c-.8,0-2.13,0-3.09,0C1,2.23.65,3,0,3A4.18,4.18,0,0,1,1,1.5a1.61,1.61,0,0,1,.7-.41A11.6,11.6,0,0,1,3.93.89h.2L8.31,1l1.55.1h1.51a51.91,51.91,0,0,0,7.76-.4A1.18,1.18,0,0,0,19.94,0h.4c-.15.91-.2,1.26-.3,2.37-.21,1.76-.26,2.66-.36,5H18.12a6.28,6.28,0,0,0,.2-1.46,2.86,2.86,0,0,0-.5-1.85,3.12,3.12,0,0,0-1.33-.85c-.81-.1-4.39-.25-5.75-.3L8.18,2.82l-.4,10.7h.9c1.41,0,1.54,0,1.9,0,1.16,0,1.56-.49,1.56-1s0-.63,0-1.34a1,1,0,0,0,0-.35h1.56A35.51,35.51,0,0,0,13,18.1V19H11.5a7.49,7.49,0,0,0,.32-1.79,3.19,3.19,0,0,0-.3-1.66c-.23-.37-.32-.54-.91-.5L10,15l-2.43.1-.3,5.69c-.16,2.67-.13,2.95-.61,3.49l.11.15a1.21,1.21,0,0,1,.58-.14,8.85,8.85,0,0,1,.92,0c1.11,0,1.74,0,1.89,0l3.69.19c1.51,0,1.5.16,2.25.11A6.41,6.41,0,0,0,20,22.24Z"/><path class="cls-1" d="M39.46,17.58a8.23,8.23,0,0,1-.9,2.18,4,4,0,0,1-3.08,2c-1.54,0-2.48-1.57-2.48-4.2a8.92,8.92,0,0,1,2.39-6.46c1.17-1.12,2.68-1.48,5.49-1.6l.67,0,.81,0h.37a1.88,1.88,0,0,0-.52.66,7.27,7.27,0,0,0-.36,1.57,44.84,44.84,0,0,0-.27,4.93c0,2.44.3,3.65.9,3.65a4.25,4.25,0,0,0,1.79-.9,4.41,4.41,0,0,1-.24.75,4.74,4.74,0,0,1-3,1.78c-1,0-1.51-1.11-1.51-3.11a5,5,0,0,1,0-.9l0-.28ZM39.1,11a3.47,3.47,0,0,0-.51,0,3.09,3.09,0,0,0-1.51.36c-1.09.64-1.79,2.54-1.79,4.93s.55,3.65,1.45,3.65a1.38,1.38,0,0,0,.67-.18c1.15-.73,1.78-2.3,1.93-4.41l.06-.79c0-.33,0-.75.09-1.24A14.18,14.18,0,0,1,39.8,11,6.12,6.12,0,0,1,39.1,11Z"/><path class="cls-1" d="M43.07,14.82a6.55,6.55,0,0,1,1.33-1A5.53,5.53,0,0,1,46.46,13c.39,0,.57.31.57.88,0,.39-.15,1.27-.36,2.81l-.15,1.06.12,0a7.56,7.56,0,0,1,1.24-2.33,5.1,5.1,0,0,1,3.59-2.32c1,0,1.45.6,1.45,2.08,0,.57-.06,1.27-.21,2.93l-.24,2.45c-.09.9-.12,1.6-.12,2.05,0,.88.18,1.27.69,1.27a1.59,1.59,0,0,0,.28-.06A3.69,3.69,0,0,0,54.83,23l.27-.21c-.18.73-.27.91-.51,1.15a5.22,5.22,0,0,1-3,1.63c-1,0-1.57-.87-1.57-2.32a22.15,22.15,0,0,1,.21-2.39l.34-3.08a12.45,12.45,0,0,0,.09-1.33c0-1-.18-1.42-.7-1.42a2.88,2.88,0,0,0-1.63,1,6,6,0,0,0-1.42,2.53A11.38,11.38,0,0,0,46.58,21l-.21,3.14v.12c0,.55.06.7.3.88l-2.78.51a4,4,0,0,0,.18-1.12l.64-8.76a4.48,4.48,0,0,0,0-.57c0-.24-.09-.36-.25-.36a4.26,4.26,0,0,0-1.72,1Z"/><path class="cls-1" d="M14.81,11.05a6,6,0,0,1,1.33-1,5.51,5.51,0,0,1,2.05-.88c.4,0,.58.31.58.88,0,.39-.15,1.27-.36,2.81L18.25,14l.13,0a7.77,7.77,0,0,1,1.23-2.33,5.12,5.12,0,0,1,3.6-2.33c1,0,1.45.61,1.45,2.09,0,.57-.06,1.27-.21,2.93l-.24,2.45c-.09.9-.13,1.6-.13,2.05,0,.88.19,1.27.7,1.27a1.52,1.52,0,0,0,.27-.06,3.58,3.58,0,0,0,1.51-.85l.27-.21c-.18.73-.27.91-.51,1.15a5.19,5.19,0,0,1-3,1.63c-1,0-1.57-.88-1.57-2.33A22.27,22.27,0,0,1,22,17.06L22.3,14a12.45,12.45,0,0,0,.09-1.33c0-1-.18-1.42-.69-1.42a2.88,2.88,0,0,0-1.63,1,6,6,0,0,0-1.42,2.54,11.91,11.91,0,0,0-.34,2.45l-.21,3.14v.12c0,.55.06.7.31.88l-2.78.51a4,4,0,0,0,.18-1.12L16.44,12a4.48,4.48,0,0,0,0-.57c0-.24-.09-.36-.24-.36a4.19,4.19,0,0,0-1.72,1Z"/><path class="cls-1" d="M47.12,5.55c3.45-.22,8-.88,9-1.82,1.26-1.13.69-2,1.61-3.32H58c-.05.64-.06.68-.11,1.44-.07,1.07-.08,1.53-.19,3.12h1.67c3.26,0,30-.49,30.75-1-.92,2.7-1.76,2.5-3.92,2.5-.39,0-27.56-.15-28.62-.21-.09,1.41-.13,2.46-.18,3.22-.22,3.69-.39,7.2-.39,9.08,0,3.16.57,5.38,1.9,5.38,1.06,0,3.87-1.43,5.37-2.83a7,7,0,0,1-1,2.23,6.25,6.25,0,0,1-1.33,1.5,4.61,4.61,0,0,1-3.36,1.57c-2.25,0-3.4-1.67-3.4-5.89,0-.88.09-2.81.18-4.33.31-4.22.35-5.74.71-9.9H46.74Z"/><path class="cls-1" d="M65.24,17.67a8.56,8.56,0,0,1-.91,2.18,4,4,0,0,1-3.08,2c-1.54,0-2.48-1.57-2.48-4.2a9,9,0,0,1,2.39-6.46c1.18-1.12,2.69-1.48,5.5-1.6l.66,0,.82,0h.36a2,2,0,0,0-.51.66,7.25,7.25,0,0,0-.37,1.57,44.84,44.84,0,0,0-.27,4.93c0,2.44.3,3.65.91,3.65a4.22,4.22,0,0,0,1.78-.9,4.41,4.41,0,0,1-.24.75,4.74,4.74,0,0,1-3,1.78c-1,0-1.51-1.11-1.51-3.11a5,5,0,0,1,0-.9l0-.28Zm-.37-6.58a3.47,3.47,0,0,0-.51,0,3.12,3.12,0,0,0-1.51.36c-1.09.64-1.78,2.54-1.78,4.93S61.61,20,62.52,20a1.37,1.37,0,0,0,.66-.18c1.15-.73,1.78-2.3,1.94-4.41l.06-.79c0-.33,0-.75.09-1.23a15.47,15.47,0,0,1,.3-2.27A6.3,6.3,0,0,1,64.87,11.09Z"/><path class="cls-1" d="M74.54,8.6l.54-.09A22.07,22.07,0,0,0,77.56,8a12.54,12.54,0,0,0,1.69-.52,3.06,3.06,0,0,0-.39,1.15,49.55,49.55,0,0,0-.52,5.74C78,18.72,78,19.6,78,21.08c0,2.44.24,3.47.85,3.47a3.4,3.4,0,0,0,1.84-1c-.06.25-.09.34-.15.55a1.45,1.45,0,0,1-.48.66,5,5,0,0,1-2.69,1.42c-1,0-1.45-.87-1.45-2.81A8.09,8.09,0,0,1,76,22l0-.18h-.15c-.58,2.39-2.39,4.29-4,4.29s-2.48-1.54-2.48-4.23c0-3.32,1.15-6.1,3-7.34a4.72,4.72,0,0,1,1.54-.63,15.47,15.47,0,0,1,2-.18h.21l.3-3.78V9.72c0-.39-.15-.49-.69-.49a6.09,6.09,0,0,0-1.57.19Zm1.06,6.62c-.22,0-.46,0-.7,0a2.87,2.87,0,0,0-1.78.42c-.88.66-1.48,2.72-1.48,5.2,0,2.14.54,3.47,1.42,3.47a1.66,1.66,0,0,0,1.27-.73,6.42,6.42,0,0,0,1.23-2.26,9.55,9.55,0,0,0,.28-2.06L76,16.91c0-.58,0-.88.09-1.66Z"/><path class="cls-1" d="M83.27,25.52c-2.09,0-3.39-1.81-3.39-4.74,0-4.26,2.57-7.89,5.56-7.89,2,0,3.23,1.84,3.23,4.74C88.67,21.89,86.2,25.52,83.27,25.52Zm1.23-11c-1.39,0-2.32,2-2.32,5.05,0,2.69.75,4.26,2,4.26S86.35,22,86.35,19C86.35,16.21,85.65,14.52,84.5,14.52Z"/><path class="cls-1" d="M33,23.46a4.49,4.49,0,0,1-3.54,2c-2.44.21-3.93-1.4-4.2-4.5-.41-4.82,2.17-9,5.79-9.33,1.11-.1,2,.22,2,.75a1.15,1.15,0,0,1-.12.47,1.72,1.72,0,0,1-1.49,1,1.47,1.47,0,0,1-.83-.09l-.23,0-.21-.08a1.68,1.68,0,0,0-.56-.08,1,1,0,0,0-.63.38,7.64,7.64,0,0,0-1.3,5.37c.23,2.67,1.45,4.23,3.14,4.09,1-.09,1.87-.76,2.75-2.05A6,6,0,0,1,33,23.46Z"/></g></g></svg>